<svg width="40" height="40" viewBox="0 0 40 40" fill="none" xmlns="http://www.w3.org/2000/svg">
    <path opacity="0.08" d="M20 40C31.0457 40 40 31.0457 40 20C40 8.9543 31.0457 0 20 0C8.9543 0 0 8.9543 0 20C0 31.0457 8.9543 40 20 40Z" fill="white"/>
    <path d="M20.0001 20H0.0150757C0.0150757 25.3004 2.12063 30.3836 5.86854 34.1315C9.61645 37.8794 14.6997 39.985 20.0001 39.985V20Z" fill="#1B4BBB"/>
    <path d="M1.5152 27.6143C0.568697 25.312 0.0599958 22.8533 0.0151978 20.3643C0.0151978 20.3643 0.0151978 20.3643 0.0151978 20.3585C0.0151978 20.3527 0.0151978 20.3293 0.0151978 20.3152C0.0151978 20.2102 0.0151978 20.106 0.0151978 20.001C0.0151978 19.896 0.0151978 19.791 0.0151978 19.6868V19.6443C0.0151978 19.6443 0.0151978 19.6393 0.0151978 19.6377C0.103677 14.4612 2.19933 9.52154 5.86008 5.86064C9.52083 2.19973 14.4604 0.103867 19.6369 0.0151672L19.6819 0.0151672H19.996H20.3102H20.3585C25.536 0.101613 30.4762 2.2011 34.1319 5.8685L5.86853 34.1318C4.00201 32.2675 2.52253 30.0525 1.5152 27.6143Z" fill="#215DE8"/>
    <path d="M20 20H39.985C39.985 25.3004 37.8794 30.3836 34.1315 34.1315C30.3836 37.8794 25.3004 39.985 20 39.985V20Z" fill="#0C2255"/>
</svg>
